# xmcd
#
# Track frame offsets: 
#        150
#        14782
#        27988
#        38305
#        50455
#        80365
#        94703
#        107240
#        122669
#        138946
#
# Disc length: 2027 seconds
#
# Revision: 0
# Processed by: cddbd v1.5.2PL0 Copyright (c) Steve Scherf et al.
# Submitted via: ExactAudioCopy v1.0b1
#
DISCID=7807e90a
DTITLE=Ceilalti - Sugestii si Reclamatii
DYEAR=2011
DGENRE=Hip-Hop
TTITLE0=Bufonii Regelui
TTITLE1=Maine
TTITLE2=Departe
TTITLE3=Linia De Sosire
TTITLE4=Imnul Romaniei Mute
TTITLE5=Uitare
TTITLE6=Noi
TTITLE7=Vis Ciripit
TTITLE8=Pui de lei
TTITLE9=ViKloth - La mine sau la tine (Bonus Track)
EXTD=
EXTT0=
EXTT1=
EXTT2=
EXTT3=
EXTT4=
EXTT5=
EXTT6=
EXTT7=
EXTT8=
EXTT9=
PLAYORDER=
